<svg width="14" height="14" viewBox="0 0 14 14" fill="none" xmlns="http://www.w3.org/2000/svg">
<path d="M2.18748 1.0092C2.03031 0.857397 1.81981 0.773401 1.60131 0.7753C1.38281 0.777199 1.1738 0.86484 1.0193 1.01935C0.864791 1.17385 0.77715 1.38286 0.775251 1.60136C0.773352 1.81986 0.857348 2.03036 1.00915 2.18753L5.82165 7.00003L1.00831 11.8125C0.928721 11.8894 0.865236 11.9814 0.821562 12.083C0.777887 12.1847 0.754899 12.294 0.753938 12.4047C0.752976 12.5153 0.774061 12.6251 0.815962 12.7275C0.857862 12.8299 0.91974 12.9229 0.997984 13.0012C1.07623 13.0794 1.16927 13.1413 1.27168 13.1832C1.3741 13.2251 1.48383 13.2462 1.59448 13.2452C1.70513 13.2443 1.81448 13.2213 1.91615 13.1776C2.01782 13.1339 2.10977 13.0705 2.18665 12.9909L6.99998 8.17836L11.8125 12.9909C11.9696 13.1427 12.1801 13.2267 12.3986 13.2248C12.6171 13.2229 12.8262 13.1352 12.9807 12.9807C13.1352 12.8262 13.2228 12.6172 13.2247 12.3987C13.2266 12.1802 13.1426 11.9697 12.9908 11.8125L8.17831 7.00003L12.9908 2.18753C13.1426 2.03036 13.2266 1.81986 13.2247 1.60136C13.2228 1.38286 13.1352 1.17385 12.9807 1.01935C12.8262 0.86484 12.6171 0.777199 12.3986 0.7753C12.1801 0.773401 11.9696 0.857397 11.8125 1.0092L6.99998 5.8217L2.18748 1.00836V1.0092Z" fill="white"/>
</svg>
