<svg width="102" height="102" viewBox="0 0 102 102" fill="none" xmlns="http://www.w3.org/2000/svg">
<g filter="url(#filter0_d)">
<rect x="10" y="12" width="78" height="78" fill="url(#paint0_linear)"/>
<rect x="6" y="8" width="86" height="86" stroke="url(#paint1_linear)" stroke-width="8"/>
</g>
<g clip-path="url(#clip0)">
<path d="M46.8333 54.7915C46.8333 53.8967 46.101 53.1665 45.2083 53.1665H37.0833V59.6665C37.0833 60.8625 36.1127 61.8332 34.9167 61.8332C33.7207 61.8332 32.75 60.8625 32.75 59.6665V53.1665H24.625C23.7302 53.1665 23 53.8967 23 54.7915V75.3748C23 76.2697 23.7302 76.9998 24.625 76.9998H45.2083C46.101 76.9998 46.8333 76.2697 46.8333 75.3748V54.7915Z" fill="white"/>
<path d="M75.0001 54.7915C75.0001 53.8967 74.2678 53.1665 73.3751 53.1665H65.2501V59.6665C65.2501 60.8625 64.2794 61.8332 63.0834 61.8332C61.8874 61.8332 60.9168 60.8625 60.9168 59.6665V53.1665H52.7917C51.8969 53.1665 51.1667 53.8967 51.1667 54.7915V75.3748C51.1667 76.2697 51.8969 76.9998 52.7917 76.9998H73.3751C74.2678 76.9998 75.0001 76.2697 75.0001 75.3748V54.7915Z" fill="white"/>
<path d="M60.9166 26.625C60.9166 25.7323 60.1842 25 59.2916 25H51.1666V31.5C51.1666 32.696 50.1959 33.6667 48.9999 33.6667C47.8039 33.6667 46.8332 32.696 46.8332 31.5V25H38.7083C37.8134 25 37.0833 25.7323 37.0833 26.625V47.2083C37.0833 48.1032 37.8134 48.8333 38.7083 48.8333H59.2916C60.1842 48.8333 60.9166 48.1032 60.9166 47.2083V26.625Z" fill="white"/>
</g>
<defs>
<filter id="filter0_d" x="0" y="0" width="102" height="102" filterUnits="userSpaceOnUse" color-interpolation-filters="sRGB">
<feFlood flood-opacity="0" result="BackgroundImageFix"/>
<feColorMatrix in="SourceAlpha" type="matrix" values="0 0 0 0 0 0 0 0 0 0 0 0 0 0 0 0 0 0 127 0"/>
<feOffset dx="2"/>
<feGaussianBlur stdDeviation="2"/>
<feColorMatrix type="matrix" values="0 0 0 0 0 0 0 0 0 0 0 0 0 0 0 0 0 0 0.5 0"/>
<feBlend mode="normal" in2="BackgroundImageFix" result="effect1_dropShadow"/>
<feBlend mode="normal" in="SourceGraphic" in2="effect1_dropShadow" result="shape"/>
</filter>
<linearGradient id="paint0_linear" x1="49" y1="12" x2="49" y2="90" gradientUnits="userSpaceOnUse">
<stop stop-color="#FEA812"/>
<stop offset="0.471875" stop-color="#FEA812"/>
<stop offset="0.508333" stop-color="#EB8316"/>
<stop offset="1" stop-color="#EB8316"/>
</linearGradient>
<linearGradient id="paint1_linear" x1="49" y1="3" x2="49" y2="99" gradientUnits="userSpaceOnUse">
<stop stop-color="white"/>
<stop offset="0.477083" stop-color="white"/>
<stop offset="0.492708" stop-color="#E1E6E9"/>
<stop offset="1" stop-color="#E1E6E9"/>
</linearGradient>
<clipPath id="clip0">
<rect width="52" height="52" fill="white" transform="translate(23 25)"/>
</clipPath>
</defs>
</svg>
