<svg width="102" height="102" viewBox="0 0 102 102" fill="none" xmlns="http://www.w3.org/2000/svg">
<g filter="url(#filter0_d)">
<rect x="10" y="12" width="78" height="78" fill="url(#paint0_linear)"/>
<rect x="6" y="8" width="86" height="86" stroke="url(#paint1_linear)" stroke-width="8"/>
</g>
<path d="M49.7661 25.2063C49.2924 24.9312 48.7077 24.9312 48.234 25.2063L38.2988 30.9783L49.0001 37.0713L59.7015 30.9783L49.7661 25.2063Z" fill="white"/>
<path d="M36.8005 44.9257C36.8005 45.473 37.0937 45.9782 37.5689 46.2497L47.475 51.9103V39.7125L36.8005 33.6348V44.9257Z" fill="white"/>
<path d="M50.5249 51.9103L60.431 46.2497C60.9062 45.9782 61.1994 45.4729 61.1994 44.9257V33.6348L50.5249 39.7125V51.9103Z" fill="white"/>
<path d="M45.9711 61.581L41.1316 56.7928C38.9399 54.6194 35.5617 54.3704 33.0981 56.0412C32.5715 56.3983 32.5044 57.1495 32.9542 57.5993L39.0229 63.668C39.5535 64.1986 39.5249 65.0671 38.9607 65.5617C38.4449 66.0138 37.6663 65.9865 37.1834 65.4994L30.7009 58.959V44.0108C30.7009 42.2983 29.3127 40.9102 27.6002 40.9102C25.8877 40.9102 24.4995 42.2983 24.4995 44.0108V58.6738C24.4995 60.5775 25.2623 62.4018 26.6172 63.739L34.2868 71.3076V75.4751C34.2868 76.3173 34.9696 77.0001 35.8117 77.0001H45.9501C46.7923 77.0001 47.4751 76.3173 47.4751 75.4751V65.1904C47.4751 63.8349 46.9336 62.5355 45.9711 61.581Z" fill="white"/>
<path d="M52.0289 61.581L56.8684 56.7928C59.0601 54.6194 62.4382 54.3704 64.9019 56.0412C65.4285 56.3983 65.4956 57.1495 65.0458 57.5993L58.9771 63.668C58.4465 64.1986 58.4751 65.0671 59.0393 65.5617C59.5551 66.0138 60.3336 65.9865 60.8165 65.4994L67.299 58.959V44.0108C67.299 42.2983 68.6872 40.9102 70.3997 40.9102C72.1122 40.9102 73.5004 42.2983 73.5004 44.0108V58.6738C73.5004 60.5775 72.7376 62.4018 71.3826 63.739L63.7131 71.3076V75.4751C63.7131 76.3173 63.0303 77.0001 62.1882 77.0001H52.0498C51.2077 77.0001 50.5249 76.3173 50.5249 75.4751V65.1904C50.5249 63.8349 51.0664 62.5355 52.0289 61.581Z" fill="white"/>
<defs>
<filter id="filter0_d" x="0" y="0" width="102" height="102" filterUnits="userSpaceOnUse" color-interpolation-filters="sRGB">
<feFlood flood-opacity="0" result="BackgroundImageFix"/>
<feColorMatrix in="SourceAlpha" type="matrix" values="0 0 0 0 0 0 0 0 0 0 0 0 0 0 0 0 0 0 127 0"/>
<feOffset dx="2"/>
<feGaussianBlur stdDeviation="2"/>
<feColorMatrix type="matrix" values="0 0 0 0 0 0 0 0 0 0 0 0 0 0 0 0 0 0 0.5 0"/>
<feBlend mode="normal" in2="BackgroundImageFix" result="effect1_dropShadow"/>
<feBlend mode="normal" in="SourceGraphic" in2="effect1_dropShadow" result="shape"/>
</filter>
<linearGradient id="paint0_linear" x1="49" y1="12" x2="49" y2="90" gradientUnits="userSpaceOnUse">
<stop stop-color="#FEA812"/>
<stop offset="0.471875" stop-color="#FEA812"/>
<stop offset="0.508333" stop-color="#EB8316"/>
<stop offset="1" stop-color="#EB8316"/>
</linearGradient>
<linearGradient id="paint1_linear" x1="49" y1="3" x2="49" y2="99" gradientUnits="userSpaceOnUse">
<stop stop-color="white"/>
<stop offset="0.477083" stop-color="white"/>
<stop offset="0.492708" stop-color="#E1E6E9"/>
<stop offset="1" stop-color="#E1E6E9"/>
</linearGradient>
</defs>
</svg>
