<svg width="102" height="102" viewBox="0 0 102 102" fill="none" xmlns="http://www.w3.org/2000/svg">
<g filter="url(#filter0_d)">
<rect x="10" y="12" width="78" height="78" fill="url(#paint0_linear)"/>
<rect x="6" y="8" width="86" height="86" stroke="url(#paint1_linear)" stroke-width="8"/>
</g>
<path d="M55.5 34.3712V34.3582L65.2305 38.7165L75 35.0537L49 25.3037L23 35.0537L49 44.8037L58.7305 41.154L49 37.1435V37.1337L55.5 34.3712Z" fill="white"/>
<path d="M23 38.3037V67.5537L47.375 76.696V47.446L23 38.3037ZM36 67.661L29.5 65.2235V61.7557L36 64.1932V67.661Z" fill="white"/>
<path d="M65.25 41.96V50.1012L58.75 52.5387V44.3975L50.625 47.446V76.696L75 67.5537V38.3037L65.25 41.96Z" fill="white"/>
<defs>
<filter id="filter0_d" x="0" y="0" width="102" height="102" filterUnits="userSpaceOnUse" color-interpolation-filters="sRGB">
<feFlood flood-opacity="0" result="BackgroundImageFix"/>
<feColorMatrix in="SourceAlpha" type="matrix" values="0 0 0 0 0 0 0 0 0 0 0 0 0 0 0 0 0 0 127 0"/>
<feOffset dx="2"/>
<feGaussianBlur stdDeviation="2"/>
<feColorMatrix type="matrix" values="0 0 0 0 0 0 0 0 0 0 0 0 0 0 0 0 0 0 0.5 0"/>
<feBlend mode="normal" in2="BackgroundImageFix" result="effect1_dropShadow"/>
<feBlend mode="normal" in="SourceGraphic" in2="effect1_dropShadow" result="shape"/>
</filter>
<linearGradient id="paint0_linear" x1="49" y1="12" x2="49" y2="90" gradientUnits="userSpaceOnUse">
<stop stop-color="#FEA812"/>
<stop offset="0.471875" stop-color="#FEA812"/>
<stop offset="0.508333" stop-color="#EB8316"/>
<stop offset="1" stop-color="#EB8316"/>
</linearGradient>
<linearGradient id="paint1_linear" x1="49" y1="3" x2="49" y2="99" gradientUnits="userSpaceOnUse">
<stop stop-color="white"/>
<stop offset="0.477083" stop-color="white"/>
<stop offset="0.492708" stop-color="#E1E6E9"/>
<stop offset="1" stop-color="#E1E6E9"/>
</linearGradient>
</defs>
</svg>
