<svg width="102" height="102" viewBox="0 0 102 102" fill="none" xmlns="http://www.w3.org/2000/svg">
<g filter="url(#filter0_d)">
<rect x="10" y="12" width="78" height="78" fill="url(#paint0_linear)"/>
<rect x="6" y="8" width="86" height="86" stroke="url(#paint1_linear)" stroke-width="8"/>
</g>
<path d="M52.5577 34.1406H45.4423C43.2272 36.6655 40.4464 38.6104 37.3203 39.8261V49.1465C37.3203 57.0288 41.8835 64.0975 49 67.3333C56.1165 64.0975 60.6797 57.0288 60.6797 49.1465V39.8271C57.5526 38.6114 54.7728 36.6665 52.5577 34.1406ZM57.187 47.2452L47.7071 56.7242C47.4095 57.0217 47.0195 57.1709 46.6305 57.1709C46.2405 57.1709 45.8505 57.0216 45.553 56.7242L40.813 51.9853C40.2189 51.3901 40.2189 50.4253 40.813 49.8301C41.4082 49.236 42.373 49.236 42.9682 49.8301L46.6305 53.4924L55.0328 45.0912C55.627 44.496 56.5918 44.496 57.187 45.0912C57.7811 45.6863 57.7811 46.6501 57.187 47.2452ZM68.2877 32.1094C63.8962 32.1094 59.8966 29.6962 57.8471 25.8125C57.584 25.3128 57.0651 25 56.5003 25H41.4995C40.9348 25 40.4158 25.3128 40.1518 25.8125C38.1034 29.6962 34.1038 32.1094 29.7031 32.1094C28.8622 32.1094 28.1797 32.7919 28.1797 33.6328V49.1465C28.1797 55.3834 30.1287 61.3391 33.8154 66.3695C37.5021 71.3998 42.5934 75.0509 48.5409 76.9289C48.6902 76.9766 48.8456 77 49 77C49.1544 77 49.3098 76.9766 49.4591 76.9289C55.4067 75.051 60.4979 71.3999 64.1846 66.3695C67.8713 61.339 69.8203 55.3834 69.8203 49.1465V33.6328C69.8203 32.7919 69.1287 32.1094 68.2877 32.1094ZM63.7266 49.0774C63.7266 58.407 58.1762 66.7503 49.586 70.3324C49.3981 70.4107 49.1991 70.4492 49 70.4492C48.8009 70.4492 48.6009 70.4106 48.414 70.3324C39.8238 66.7503 34.2734 58.4069 34.2734 49.0774V38.6855C34.2734 38.0274 34.6959 37.4434 35.3216 37.2383C38.5543 36.1749 41.4021 34.2198 43.5562 31.5843C43.8457 31.2298 44.2794 31.0247 44.7364 31.0247H53.2636C53.7308 31.0247 54.2812 31.3863 54.4436 31.5843C56.5978 34.2198 59.4456 36.1749 62.6783 37.2383C63.1243 37.3845 63.4654 37.7227 63.6259 38.1442C63.628 38.1483 63.629 38.1534 63.631 38.1574C63.6697 38.262 63.697 38.3717 63.7123 38.4845C63.7134 38.4956 63.7153 38.5078 63.7164 38.519C63.7225 38.5738 63.7266 38.6287 63.7266 38.6855V49.0774Z" fill="white"/>
<defs>
<filter id="filter0_d" x="0" y="0" width="102" height="102" filterUnits="userSpaceOnUse" color-interpolation-filters="sRGB">
<feFlood flood-opacity="0" result="BackgroundImageFix"/>
<feColorMatrix in="SourceAlpha" type="matrix" values="0 0 0 0 0 0 0 0 0 0 0 0 0 0 0 0 0 0 127 0"/>
<feOffset dx="2"/>
<feGaussianBlur stdDeviation="2"/>
<feColorMatrix type="matrix" values="0 0 0 0 0 0 0 0 0 0 0 0 0 0 0 0 0 0 0.5 0"/>
<feBlend mode="normal" in2="BackgroundImageFix" result="effect1_dropShadow"/>
<feBlend mode="normal" in="SourceGraphic" in2="effect1_dropShadow" result="shape"/>
</filter>
<linearGradient id="paint0_linear" x1="49" y1="12" x2="49" y2="90" gradientUnits="userSpaceOnUse">
<stop stop-color="#FEA812"/>
<stop offset="0.471875" stop-color="#FEA812"/>
<stop offset="0.508333" stop-color="#EB8316"/>
<stop offset="1" stop-color="#EB8316"/>
</linearGradient>
<linearGradient id="paint1_linear" x1="49" y1="3" x2="49" y2="99" gradientUnits="userSpaceOnUse">
<stop stop-color="white"/>
<stop offset="0.477083" stop-color="white"/>
<stop offset="0.492708" stop-color="#E1E6E9"/>
<stop offset="1" stop-color="#E1E6E9"/>
</linearGradient>
</defs>
</svg>
