<svg width="102" height="102" viewBox="0 0 102 102" fill="none" xmlns="http://www.w3.org/2000/svg">
<g filter="url(#filter0_d)">
<rect x="10" y="12" width="78" height="78" fill="url(#paint0_linear)"/>
<rect x="6" y="8" width="86" height="86" stroke="url(#paint1_linear)" stroke-width="8"/>
</g>
<path d="M76.7559 52.3353L71.5997 43.7416C71.2903 43.2225 70.73 42.9062 70.125 42.9062H59.8125V37.75C59.8125 36.8013 59.0425 36.0312 58.0938 36.0312H34.0312C33.0825 36.0312 32.3125 36.8013 32.3125 37.75V39.4688H23.7188C22.77 39.4688 22 40.2387 22 41.1875C22 42.1363 22.77 42.9062 23.7188 42.9062H32.3125V46.3438H27.1562C26.2075 46.3438 25.4375 47.1138 25.4375 48.0625C25.4375 49.0112 26.2075 49.7812 27.1562 49.7812H32.3125V53.2188H30.5938C29.645 53.2188 28.875 53.9888 28.875 54.9375C28.875 55.8862 29.645 56.6562 30.5938 56.6562H32.3125V61.8125C32.3125 62.7612 33.0825 63.5312 34.0312 63.5312H39.5037C40.2153 65.5284 42.1059 66.9688 44.3438 66.9688C46.5816 66.9688 48.4722 65.5284 49.1838 63.5312H58.0938H59.8125H63.5662C64.2778 65.5284 66.1684 66.9688 68.4062 66.9688C70.6441 66.9688 72.5347 65.5284 73.2463 63.5312H75.2812C76.23 63.5312 77 62.7612 77 61.8125V53.2188C77 52.9059 76.9175 52.6 76.7559 52.3353ZM44.3438 63.5312C43.395 63.5312 42.625 62.7578 42.625 61.8125C42.625 60.8672 43.395 60.0938 44.3438 60.0938C45.2925 60.0938 46.0625 60.8672 46.0625 61.8125C46.0625 62.7578 45.2925 63.5312 44.3438 63.5312ZM68.4062 63.5312C67.4609 63.5312 66.6875 62.7578 66.6875 61.8125C66.6875 60.8672 67.4609 60.0938 68.4062 60.0938C69.3516 60.0938 70.125 60.8672 70.125 61.8125C70.125 62.7578 69.3516 63.5312 68.4062 63.5312ZM63.25 53.2188V46.3438H69.1522L73.2772 53.2188H63.25Z" fill="white"/>
<defs>
<filter id="filter0_d" x="0" y="0" width="102" height="102" filterUnits="userSpaceOnUse" color-interpolation-filters="sRGB">
<feFlood flood-opacity="0" result="BackgroundImageFix"/>
<feColorMatrix in="SourceAlpha" type="matrix" values="0 0 0 0 0 0 0 0 0 0 0 0 0 0 0 0 0 0 127 0"/>
<feOffset dx="2"/>
<feGaussianBlur stdDeviation="2"/>
<feColorMatrix type="matrix" values="0 0 0 0 0 0 0 0 0 0 0 0 0 0 0 0 0 0 0.5 0"/>
<feBlend mode="normal" in2="BackgroundImageFix" result="effect1_dropShadow"/>
<feBlend mode="normal" in="SourceGraphic" in2="effect1_dropShadow" result="shape"/>
</filter>
<linearGradient id="paint0_linear" x1="49" y1="12" x2="49" y2="90" gradientUnits="userSpaceOnUse">
<stop stop-color="#FEA812"/>
<stop offset="0.471875" stop-color="#FEA812"/>
<stop offset="0.508333" stop-color="#EB8316"/>
<stop offset="1" stop-color="#EB8316"/>
</linearGradient>
<linearGradient id="paint1_linear" x1="49" y1="3" x2="49" y2="99" gradientUnits="userSpaceOnUse">
<stop stop-color="white"/>
<stop offset="0.477083" stop-color="white"/>
<stop offset="0.492708" stop-color="#E1E6E9"/>
<stop offset="1" stop-color="#E1E6E9"/>
</linearGradient>
</defs>
</svg>
