<svg width="60" height="60" viewBox="0 0 60 60" fill="none" xmlns="http://www.w3.org/2000/svg">
<path d="M43.221 0H12.2C10.8745 0 9.80005 1.07446 9.80005 2.40004V57.6C9.80005 58.9254 10.8745 60 12.2001 60H51.3999C52.7254 60 53.7999 58.9255 53.7999 57.6V10.5789L43.221 0Z" fill="white"/>
<path d="M53.7999 33.0649H6.19995V49.5034H53.7999V33.0649Z" fill="#EB8316"/>
<path d="M23.4112 37.6361C24.3807 38.5137 24.8644 39.7344 24.8644 41.2983C24.8644 42.8615 24.3948 44.0992 23.4545 45.0102C22.5142 45.9218 21.0751 46.3773 19.1383 46.3773H15.7999V36.3193H19.2531C21.0564 36.3193 22.4428 36.7584 23.4112 37.6361ZM23.1524 41.3409C23.1524 39.0388 21.8338 37.8877 19.1957 37.8877H17.4978V44.7799H19.3831C20.6009 44.7799 21.5342 44.4901 22.1817 43.9093C22.8291 43.3293 23.1524 42.4733 23.1524 41.3409Z" fill="#EBF0F3"/>
<path d="M35.4685 44.9885C34.4521 45.9814 33.1957 46.4779 31.6992 46.4779C30.2027 46.4779 28.9463 45.9814 27.9299 44.9885C26.9123 43.9961 26.4042 42.7583 26.4042 41.2766C26.4042 39.7941 26.9123 38.557 27.9299 37.564C28.9463 36.571 30.2027 36.0752 31.6992 36.0752C33.1957 36.0752 34.4521 36.571 35.4685 37.564C36.4861 38.557 36.9942 39.7941 36.9942 41.2766C36.9942 42.7583 36.4861 43.996 35.4685 44.9885ZM34.2249 38.6934C33.5387 37.9839 32.6968 37.6291 31.6992 37.6291C30.7015 37.6291 29.8596 37.9839 29.1735 38.6934C28.4885 39.4036 28.1454 40.2642 28.1454 41.2766C28.1454 42.2889 28.4885 43.1495 29.1735 43.859C29.8597 44.5692 30.7016 44.924 31.6992 44.924C32.6969 44.924 33.5388 44.5692 34.2249 43.859C34.9099 43.1495 35.253 42.2887 35.253 41.2766C35.253 40.2644 34.91 39.4035 34.2249 38.6934Z" fill="#EBF0F3"/>
<path d="M43.7285 44.8374C44.3127 44.8374 44.8163 44.7396 45.2391 44.543C45.6606 44.3463 46.1021 44.0319 46.5634 43.6004L47.6559 44.7227C46.5914 45.9025 45.2988 46.4926 43.7788 46.4926C42.2577 46.4926 40.9966 46.0032 39.9943 45.0248C38.9919 44.0465 38.4907 42.8088 38.4907 41.3123C38.4907 39.8158 39.0013 38.5693 40.0235 37.5711C41.0445 36.574 42.335 36.0752 43.8935 36.0752C45.452 36.0752 46.7541 36.6507 47.7998 37.8018L46.7213 38.9816C46.2413 38.5214 45.7881 38.2 45.3607 38.0173C44.9344 37.8352 44.4333 37.7439 43.8571 37.7439C42.8407 37.7439 41.9871 38.0729 41.2963 38.7298C40.6054 39.3867 40.26 40.2263 40.26 41.248C40.26 42.2696 40.6031 43.1232 41.2892 43.8088C41.9756 44.4949 42.7882 44.8374 43.7285 44.8374Z" fill="#EBF0F3"/>
<path d="M6.19995 49.5029L9.8 52.8504V49.5029H6.19995Z" fill="#FB6B03"/>
<path d="M43.2212 10.5789H53.8L43.2211 0L43.2212 10.5789Z" fill="white"/>
<path d="M45.2565 10.5791L53.8 15.536V10.5791H45.2565Z" fill="#D5D6DB"/>
</svg>
