<svg width="56" height="56" viewBox="0 0 56 56" fill="none" xmlns="http://www.w3.org/2000/svg">
<g filter="url(#filter0_d)">
<rect x="2" y="4" width="48" height="48" rx="2" fill="url(#paint0_linear)"/>
</g>
<g clip-path="url(#clip0)">
<path d="M19.7388 25.63C20.2899 25.63 20.7366 25.1833 20.7366 24.6322C20.7366 24.0811 20.2899 23.6343 19.7388 23.6343C19.1877 23.6343 18.741 24.0811 18.741 24.6322C18.741 25.1833 19.1877 25.63 19.7388 25.63Z" fill="white"/>
<path d="M39.7992 17.7312C38.5079 17.7312 37.4206 18.6004 37.0881 19.7854H35.8211C35.4003 19.7854 35.0592 20.1265 35.0592 20.5472C35.0592 20.9682 35.4003 21.3092 35.8211 21.3092H37.0881C37.4206 22.4942 38.5079 23.3634 39.7992 23.3634C41.3545 23.3634 42.6155 22.1027 42.6155 20.5472C42.6155 18.992 41.3545 17.7312 39.7992 17.7312Z" fill="white"/>
<path d="M39.8403 24.2787C39.1068 24.2787 38.4552 24.6285 38.0425 25.1701C37.8227 25.4264 37.052 26.2549 36.0403 26.5625C34.9363 26.8981 33.8133 26.3184 33.8077 26.3155C33.3282 26.0555 32.7295 26.2334 32.4696 26.7125C32.2098 27.1917 32.41 27.7532 32.8667 28.0505C33.8261 28.6749 35.7551 28.7121 36.6145 28.4509C36.9607 28.3457 37.2839 28.2045 37.581 28.0447V32.8612C37.581 33.5869 37.9234 34.2321 38.455 34.6454V43.4809C38.455 44.246 39.0752 44.8662 39.8404 44.8662C40.6055 44.8662 41.2258 44.246 41.2258 43.4809V34.6455C41.7574 34.2321 42.0997 33.5869 42.0997 32.8613V26.5381C42.0996 25.2903 41.0882 24.2787 39.8403 24.2787Z" fill="white"/>
<path d="M33.2887 25.516C34.0657 25.516 34.3456 25.9469 35.0897 25.9469C35.5102 25.9469 35.9994 25.796 35.9994 25.5708V23.9698C35.9994 23.4115 35.5452 22.9573 34.987 22.9573H32.0803V24.2789C32.0803 24.3745 32.0028 24.452 31.9072 24.452H31.0774C30.9817 24.452 30.9041 24.3745 30.9041 24.2789V22.9573H27.9976C27.4393 22.9573 26.9851 23.4115 26.9851 23.9698V30.9592C26.9851 31.5175 27.4393 31.9717 27.9976 31.9717H34.987C35.5452 31.9717 35.9994 31.5175 35.9994 30.9592V29.5668C35.9994 29.5166 35.9777 29.469 35.9399 29.4361C35.9021 29.4033 35.8521 29.3913 35.8023 29.3953C32.5129 29.6594 31.0063 27.9073 31.7615 26.425C32.051 25.8567 32.6508 25.516 33.2887 25.516Z" fill="white"/>
<path d="M26.4578 35.4376H25.055V12.7881C25.055 12.2143 24.5898 11.7491 24.0159 11.7491H11.9036C11.3299 11.7491 10.8647 12.2143 10.8647 12.7881V35.4375H9.46189C9.07936 35.4376 8.76929 35.7476 8.76929 36.1302V38.5832C8.76929 38.9658 9.07936 39.2758 9.46189 39.2758H26.4578C26.8403 39.2758 27.1504 38.9658 27.1504 38.5832V36.1302C27.1504 35.7476 26.8403 35.4376 26.4578 35.4376ZM12.9427 13.8271H22.977V35.4372H12.9427V13.8271Z" fill="white"/>
</g>
<defs>
<filter id="filter0_d" x="0" y="0" width="56" height="56" filterUnits="userSpaceOnUse" color-interpolation-filters="sRGB">
<feFlood flood-opacity="0" result="BackgroundImageFix"/>
<feColorMatrix in="SourceAlpha" type="matrix" values="0 0 0 0 0 0 0 0 0 0 0 0 0 0 0 0 0 0 127 0"/>
<feOffset dx="2"/>
<feGaussianBlur stdDeviation="2"/>
<feColorMatrix type="matrix" values="0 0 0 0 0 0 0 0 0 0 0 0 0 0 0 0 0 0 0.5 0"/>
<feBlend mode="normal" in2="BackgroundImageFix" result="effect1_dropShadow"/>
<feBlend mode="normal" in="SourceGraphic" in2="effect1_dropShadow" result="shape"/>
</filter>
<linearGradient id="paint0_linear" x1="26" y1="4" x2="26" y2="52" gradientUnits="userSpaceOnUse">
<stop stop-color="#FEA812"/>
<stop offset="0.471875" stop-color="#FEA812"/>
<stop offset="0.508333" stop-color="#EB8316"/>
<stop offset="1" stop-color="#EB8316"/>
</linearGradient>
<clipPath id="clip0">
<rect width="33.8462" height="33.8462" fill="white" transform="translate(8.76929 11.3846)"/>
</clipPath>
</defs>
</svg>
