<svg width="56" height="56" viewBox="0 0 56 56" fill="none" xmlns="http://www.w3.org/2000/svg">
<g filter="url(#filter0_d)">
<rect x="2" y="4" width="48" height="48" rx="2" fill="url(#paint0_linear)"/>
</g>
<path d="M36.9525 25.1153L32.0965 22.3421C30.4658 25.1122 28.5677 27.716 26.4294 30.1161C26.3753 30.1764 26.3091 30.2245 26.2352 30.2575C26.1612 30.2905 26.0811 30.3075 26.0002 30.3075C25.9192 30.3075 25.8391 30.2905 25.7652 30.2575C25.6912 30.2245 25.625 30.1764 25.5709 30.1161C23.4326 27.716 21.5345 25.1122 19.9038 22.3421L15.0479 25.1153L26.0002 31.3738L36.9525 25.1153Z" fill="white"/>
<path d="M26.0002 28.8567C28.1054 26.4198 32.3464 20.9425 32.3464 18.1923C32.3464 16.5092 31.6778 14.895 30.4876 13.7049C29.2975 12.5147 27.6833 11.8461 26.0002 11.8461C24.3171 11.8461 22.7029 12.5147 21.5128 13.7049C20.3227 14.895 19.6541 16.5092 19.6541 18.1923C19.6541 20.9442 23.895 26.4204 26.0002 28.8567ZM26.0002 14.7307C26.5707 14.7307 27.1284 14.8999 27.6028 15.2169C28.0772 15.5339 28.4469 15.9844 28.6652 16.5115C28.8836 17.0386 28.9407 17.6186 28.8294 18.1781C28.7181 18.7377 28.4434 19.2517 28.0399 19.6551C27.6365 20.0585 27.1225 20.3332 26.563 20.4445C26.0034 20.5559 25.4234 20.4987 24.8963 20.2804C24.3692 20.0621 23.9187 19.6923 23.6017 19.218C23.2848 18.7436 23.1156 18.1859 23.1156 17.6154C23.1165 16.8506 23.4207 16.1174 23.9615 15.5766C24.5023 15.0359 25.2354 14.7317 26.0002 14.7307Z" fill="white"/>
<path d="M25.4232 33.0769L21.6905 35.41C21.6021 35.4652 21.5004 35.4954 21.3961 35.4975C21.2919 35.4995 21.1891 35.4733 21.0986 35.4215L14.4617 31.6311V37.4731L25.4232 43.7367V33.0769Z" fill="white"/>
<path d="M38.1024 24.4432L41.6263 22.2411L33.4472 17.3344C33.4813 17.6191 33.499 17.9055 33.5003 18.1923C33.4284 19.2824 33.1289 20.3455 32.6211 21.3128L38.1024 24.4432Z" fill="white"/>
<path d="M10.3743 22.2411L13.8981 24.4432L19.3789 21.3128C18.8713 20.3454 18.572 19.2824 18.5002 18.1923C18.5015 17.9055 18.5193 17.6191 18.5533 17.3344L10.3743 22.2411Z" fill="white"/>
<path d="M24.8764 32.0604L13.8981 25.7875L10.3933 27.9781L21.3716 34.2509L24.8764 32.0604Z" fill="white"/>
<path d="M38.1023 25.7875L27.124 32.0604L30.6288 34.2509L41.6071 27.9781L38.1023 25.7875Z" fill="white"/>
<path d="M37.5387 31.6311L30.9041 35.4238C30.8136 35.4756 30.7107 35.5018 30.6065 35.4998C30.5023 35.4977 30.4006 35.4675 30.3121 35.4123L26.5771 33.0769V43.7367L37.5387 37.4731V31.6311ZM30.3445 40.6052L28.5843 41.6113C28.4514 41.6873 28.2938 41.7074 28.1461 41.6671C27.9984 41.6269 27.8727 41.5296 27.7968 41.3967C27.7208 41.2638 27.7007 41.1062 27.741 40.9585C27.7812 40.8108 27.8785 40.6852 28.0114 40.6092L29.7721 39.6031C29.905 39.5272 30.0626 39.5072 30.2103 39.5475C30.3579 39.5878 30.4835 39.6851 30.5594 39.818C30.6353 39.9509 30.6552 40.1084 30.6149 40.2561C30.5746 40.4037 30.4773 40.5293 30.3445 40.6052ZM30.3445 38.2975L28.5843 39.3036C28.4514 39.3796 28.2938 39.3997 28.1461 39.3594C27.9984 39.3192 27.8727 39.2219 27.7968 39.089C27.7208 38.9561 27.7007 38.7985 27.741 38.6508C27.7812 38.5031 27.8785 38.3775 28.0114 38.3015L29.7721 37.2954C29.905 37.2195 30.0626 37.1995 30.2103 37.2398C30.3579 37.2801 30.4835 37.3774 30.5594 37.5103C30.6353 37.6432 30.6552 37.8008 30.6149 37.9484C30.5746 38.096 30.4773 38.2216 30.3445 38.2975ZM32.696 39.2615L32.0389 39.6371C31.9731 39.6749 31.9004 39.6994 31.8252 39.7092C31.7499 39.7189 31.6734 39.7137 31.6001 39.6938C31.5269 39.6739 31.4582 39.6397 31.3982 39.5933C31.3382 39.5468 31.2879 39.489 31.2502 39.4231C31.1744 39.2902 31.1544 39.1327 31.1946 38.9852C31.2349 38.8376 31.3321 38.7121 31.4648 38.6361L32.122 38.26C32.2548 38.1841 32.4124 38.1641 32.5601 38.2044C32.7077 38.2447 32.8333 38.342 32.9092 38.4749C32.9851 38.6078 33.0051 38.7654 32.9648 38.913C32.9245 39.0606 32.8272 39.1862 32.6943 39.2621L32.696 39.2615ZM32.696 36.9538L32.0389 37.3294C31.9731 37.3673 31.9004 37.3917 31.8252 37.4015C31.7499 37.4112 31.6734 37.406 31.6001 37.3861C31.5269 37.3662 31.4582 37.3321 31.3982 37.2856C31.3382 37.2391 31.2879 37.1813 31.2502 37.1154C31.1744 36.9825 31.1544 36.825 31.1946 36.6775C31.2349 36.5299 31.3321 36.4044 31.4648 36.3284L32.122 35.9523C32.2548 35.8764 32.4124 35.8564 32.5601 35.8967C32.7077 35.937 32.8333 36.0343 32.9092 36.1672C32.9851 36.3001 33.0051 36.4577 32.9648 36.6053C32.9245 36.7529 32.8272 36.8785 32.6943 36.9544L32.696 36.9538Z" fill="white"/>
<defs>
<filter id="filter0_d" x="0" y="0" width="56" height="56" filterUnits="userSpaceOnUse" color-interpolation-filters="sRGB">
<feFlood flood-opacity="0" result="BackgroundImageFix"/>
<feColorMatrix in="SourceAlpha" type="matrix" values="0 0 0 0 0 0 0 0 0 0 0 0 0 0 0 0 0 0 127 0"/>
<feOffset dx="2"/>
<feGaussianBlur stdDeviation="2"/>
<feColorMatrix type="matrix" values="0 0 0 0 0 0 0 0 0 0 0 0 0 0 0 0 0 0 0.5 0"/>
<feBlend mode="normal" in2="BackgroundImageFix" result="effect1_dropShadow"/>
<feBlend mode="normal" in="SourceGraphic" in2="effect1_dropShadow" result="shape"/>
</filter>
<linearGradient id="paint0_linear" x1="26" y1="4" x2="26" y2="52" gradientUnits="userSpaceOnUse">
<stop stop-color="#FEA812"/>
<stop offset="0.471875" stop-color="#FEA812"/>
<stop offset="0.508333" stop-color="#EB8316"/>
<stop offset="1" stop-color="#EB8316"/>
</linearGradient>
</defs>
</svg>
