<svg width="56" height="56" viewBox="0 0 56 56" fill="none" xmlns="http://www.w3.org/2000/svg">
<g filter="url(#filter0_d)">
<rect x="2" y="4" width="48" height="48" rx="2" fill="url(#paint0_linear)"/>
</g>
<g clip-path="url(#clip0)">
<path d="M25.6923 40.0236C22.9748 40.0236 20.4211 39.3105 18.207 38.0627V44.2544C18.207 44.5857 18.375 44.8945 18.6532 45.0743C18.9314 45.2541 19.2818 45.2806 19.584 45.1447L25.6923 42.3961L31.8005 45.1447C31.9284 45.2023 32.0649 45.2307 32.201 45.2307C32.3864 45.2307 32.5708 45.178 32.7313 45.0743C33.0094 44.8944 33.1775 44.5857 33.1775 44.2544V38.0627C30.9634 39.3104 28.4097 40.0236 25.6923 40.0236Z" fill="white"/>
<path d="M29.5167 24.2693L30.8602 21.7441L28.0016 21.645C27.6771 21.6338 27.3793 21.4618 27.2074 21.1864L25.6923 18.7603L24.1772 21.1864C24.0052 21.4619 23.7075 21.6338 23.383 21.6451L20.5244 21.7442L21.8679 24.2693C22.0205 24.556 22.0205 24.8997 21.8679 25.1864L20.5244 27.7115L23.383 27.8106C23.7075 27.8219 24.0053 27.9938 24.1772 28.2693L25.6923 30.6953L27.2074 28.2692C27.3794 27.9937 27.6771 27.8219 28.0016 27.8105L30.8602 27.7115L29.5167 25.1864C29.3641 24.8997 29.3641 24.556 29.5167 24.2693Z" fill="white"/>
<path d="M25.6923 11.3846C18.3349 11.3846 12.3491 17.3703 12.3491 24.7278C12.3491 29.3682 14.7307 33.4622 18.3353 35.8537C18.371 35.8773 18.4067 35.9011 18.4428 35.9245C18.4863 35.9527 18.5299 35.9808 18.5738 36.0085C18.6102 36.0316 18.6468 36.0542 18.6833 36.0769C18.7269 36.1039 18.7702 36.131 18.8141 36.1575C18.8724 36.1927 18.9312 36.2274 18.9901 36.2617C19.0451 36.2937 19.1005 36.3253 19.156 36.3567C19.1958 36.3791 19.2356 36.4015 19.2756 36.4236C19.3194 36.4477 19.3634 36.4716 19.4076 36.4953C19.4485 36.5172 19.4896 36.5389 19.5307 36.5603C19.5737 36.5828 19.6165 36.6054 19.6598 36.6274C19.7282 36.6622 19.7971 36.6964 19.8661 36.7301C19.9136 36.7533 19.9614 36.7758 20.0093 36.7984C20.0553 36.8202 20.1013 36.8419 20.1476 36.8632C20.1903 36.8828 20.2333 36.9021 20.2763 36.9213C20.323 36.9421 20.3698 36.9625 20.4167 36.9828C20.4579 37.0005 20.499 37.0185 20.5403 37.0358C20.621 37.0697 20.702 37.1029 20.7835 37.1353C20.8193 37.1495 20.8553 37.163 20.8913 37.1769C20.9458 37.198 21.0004 37.2189 21.0553 37.2394C21.0958 37.2544 21.1366 37.2693 21.1773 37.2839C21.2308 37.3032 21.2846 37.3221 21.3383 37.3408C21.3765 37.354 21.4147 37.3674 21.4531 37.3803C21.5393 37.4093 21.6257 37.4375 21.7127 37.4648C21.7422 37.4741 21.772 37.4827 21.8016 37.4918C21.8659 37.5114 21.9304 37.5308 21.9951 37.5494C22.0329 37.5603 22.0708 37.571 22.1087 37.5815C22.1691 37.5984 22.2296 37.6147 22.2902 37.6307C22.3255 37.64 22.3606 37.6495 22.396 37.6585C22.4875 37.6819 22.5793 37.7044 22.6716 37.7259C22.6936 37.731 22.7158 37.7356 22.7377 37.7407C22.8127 37.7577 22.8879 37.7742 22.9633 37.7899C22.9982 37.7972 23.0331 37.8042 23.0679 37.8111C23.1347 37.8245 23.2017 37.8374 23.2689 37.8497C23.3015 37.8557 23.3341 37.8619 23.3667 37.8676C23.463 37.8846 23.5596 37.9009 23.6566 37.9158C23.6707 37.918 23.6849 37.9198 23.699 37.922C23.7846 37.9349 23.8704 37.9468 23.9563 37.9581C23.9888 37.9624 24.0214 37.9663 24.0539 37.9703C24.1258 37.9792 24.1977 37.9874 24.2699 37.995C24.301 37.9983 24.332 38.0018 24.3632 38.0049C24.4633 38.0149 24.5637 38.024 24.6644 38.0317C24.6712 38.0322 24.6781 38.0326 24.6849 38.0331C24.78 38.0402 24.8752 38.0462 24.9708 38.0513C25.0019 38.053 25.033 38.0543 25.0642 38.0558C25.1395 38.0593 25.2148 38.0621 25.2904 38.0644C25.3211 38.0653 25.3519 38.0664 25.3826 38.067C25.4857 38.0693 25.5888 38.0709 25.6924 38.0709C25.7961 38.0709 25.8992 38.0693 26.0023 38.067C26.0331 38.0663 26.0638 38.0652 26.0945 38.0644C26.1701 38.0621 26.2454 38.0592 26.3206 38.0558C26.3518 38.0543 26.383 38.053 26.4141 38.0513C26.5096 38.0461 26.605 38.0402 26.7 38.0331C26.7067 38.0326 26.7136 38.0322 26.7205 38.0317C26.8212 38.024 26.9215 38.0149 27.0217 38.0049C27.0529 38.0018 27.0839 37.9983 27.115 37.995C27.1872 37.9874 27.2591 37.9791 27.3309 37.9703C27.3635 37.9663 27.3961 37.9624 27.4286 37.9581C27.5146 37.947 27.6003 37.9349 27.6859 37.922C27.7 37.9199 27.7142 37.918 27.7283 37.9158C27.8253 37.901 27.9219 37.8846 28.0182 37.8676C28.0508 37.8618 28.0834 37.8557 28.1159 37.8497C28.1831 37.8374 28.2501 37.8245 28.3169 37.8111C28.3518 37.8042 28.3868 37.7971 28.4215 37.7899C28.4969 37.7742 28.5721 37.7577 28.6471 37.7407C28.6691 37.7356 28.6913 37.731 28.7132 37.7259C28.8054 37.7045 28.8972 37.6818 28.9888 37.6585C29.0242 37.6494 29.0593 37.64 29.0946 37.6307C29.1553 37.6147 29.2157 37.5983 29.2761 37.5815C29.314 37.5709 29.3519 37.5603 29.3897 37.5494C29.4545 37.5307 29.5189 37.5114 29.5832 37.4918C29.6128 37.4827 29.6426 37.4741 29.6721 37.4648C29.759 37.4376 29.8455 37.4093 29.9317 37.3803C29.9701 37.3674 30.0083 37.354 30.0465 37.3408C30.1003 37.3221 30.1541 37.3033 30.2075 37.2839C30.2482 37.2692 30.2889 37.2544 30.3295 37.2394C30.3844 37.2189 30.439 37.198 30.4935 37.1769C30.5295 37.163 30.5656 37.1495 30.6013 37.1353C30.6828 37.1029 30.7637 37.0697 30.8444 37.0358C30.8858 37.0184 30.927 37.0004 30.9681 36.9826C31.015 36.9624 31.0618 36.942 31.1084 36.9212C31.1515 36.902 31.1944 36.8827 31.2372 36.8631C31.2835 36.8419 31.3295 36.8201 31.3755 36.7984C31.4233 36.7758 31.4711 36.7532 31.5187 36.73C31.5878 36.6963 31.6566 36.6621 31.725 36.6273C31.7682 36.6053 31.8111 36.5827 31.854 36.5603C31.8951 36.5388 31.9362 36.5172 31.9771 36.4952C32.0212 36.4716 32.0652 36.4477 32.1091 36.4235C32.1492 36.4014 32.1889 36.3791 32.2286 36.3566C32.2842 36.3253 32.3395 36.2937 32.3946 36.2616C32.4535 36.2272 32.5122 36.1927 32.5705 36.1574C32.6144 36.1309 32.6578 36.1039 32.7014 36.0768C32.7379 36.0542 32.7745 36.0315 32.8108 36.0084C32.8547 35.9807 32.8984 35.9526 32.9419 35.9244C32.9779 35.9011 33.0137 35.8773 33.0494 35.8536C36.654 33.4622 39.0356 29.3682 39.0356 24.7277C39.0355 17.3703 33.0497 11.3846 25.6923 11.3846ZM33.3185 28.1746C33.4767 28.4718 33.4704 28.8297 33.3021 29.1213C33.1337 29.4128 32.8269 29.5972 32.4904 29.6089L28.5885 29.744L26.5205 33.0555C26.3421 33.3411 26.0291 33.5147 25.6924 33.5147C25.3556 33.5147 25.0427 33.3411 24.8643 33.0555L22.7963 29.744L18.8944 29.6089C18.5578 29.5972 18.251 29.4128 18.0827 29.1213C17.9143 28.8297 17.908 28.4718 18.0663 28.1746L19.9001 24.7278L18.0663 21.281C17.908 20.9838 17.9143 20.6259 18.0827 20.3343C18.251 20.0428 18.5578 19.8584 18.8944 19.8467L22.7963 19.7116L24.8643 16.4001C25.0427 16.1145 25.3556 15.9409 25.6924 15.9409C26.0291 15.9409 26.3421 16.1145 26.5205 16.4001L28.5885 19.7116L32.4904 19.8467C32.8269 19.8584 33.1337 20.0428 33.3021 20.3343C33.4704 20.6259 33.4767 20.9838 33.3185 21.281L31.4846 24.7278L33.3185 28.1746Z" fill="white"/>
</g>
<defs>
<filter id="filter0_d" x="0" y="0" width="56" height="56" filterUnits="userSpaceOnUse" color-interpolation-filters="sRGB">
<feFlood flood-opacity="0" result="BackgroundImageFix"/>
<feColorMatrix in="SourceAlpha" type="matrix" values="0 0 0 0 0 0 0 0 0 0 0 0 0 0 0 0 0 0 127 0"/>
<feOffset dx="2"/>
<feGaussianBlur stdDeviation="2"/>
<feColorMatrix type="matrix" values="0 0 0 0 0 0 0 0 0 0 0 0 0 0 0 0 0 0 0.5 0"/>
<feBlend mode="normal" in2="BackgroundImageFix" result="effect1_dropShadow"/>
<feBlend mode="normal" in="SourceGraphic" in2="effect1_dropShadow" result="shape"/>
</filter>
<linearGradient id="paint0_linear" x1="26" y1="4" x2="26" y2="52" gradientUnits="userSpaceOnUse">
<stop stop-color="#FEA812"/>
<stop offset="0.471875" stop-color="#FEA812"/>
<stop offset="0.508333" stop-color="#EB8316"/>
<stop offset="1" stop-color="#EB8316"/>
</linearGradient>
<clipPath id="clip0">
<rect width="33.8462" height="33.8462" fill="white" transform="translate(8.76929 11.3846)"/>
</clipPath>
</defs>
</svg>
