<svg width="56" height="56" viewBox="0 0 56 56" fill="none" xmlns="http://www.w3.org/2000/svg">
<g filter="url(#filter0_d)">
<rect x="2" y="4" width="48" height="48" rx="2" fill="url(#paint0_linear)"/>
</g>
<g clip-path="url(#clip0)">
<path d="M23.7144 13.2992H28.1309V18.6238H23.7144V13.2992Z" fill="white"/>
<path d="M23.7144 20.6732H28.1309V23.4048H23.7144V20.6732Z" fill="white"/>
<path d="M12.2546 20.6732V30.4475C12.8899 30.5679 13.4916 30.8872 13.961 31.3968L17.3442 35.0691C17.3529 35.0785 17.3621 35.0873 17.3709 35.0966V34.3493C17.3709 32.7777 18.6495 31.4993 20.2209 31.4993H24.9586C25.5468 31.5658 27.1044 30.6746 27.6415 30.4611C29.9218 29.401 32.5172 29.4428 34.7621 30.576L36.1273 31.2695C36.5096 30.0417 37.6072 29.1523 38.8988 29.1523H39.7084V20.6732H30.1802V24.4295C30.1802 24.9954 29.7215 25.4542 29.1555 25.4542H22.6896C22.1237 25.4542 21.6649 24.9954 21.6649 24.4295V20.6732H12.2546Z" fill="white"/>
<path d="M30.1803 18.6238H39.7084V14.7205C39.7084 13.9355 39.1796 13.2992 38.5273 13.2992H30.1803V18.6238Z" fill="white"/>
<path d="M38.8987 31.2017C38.4205 31.2017 38.0315 31.6607 38.0315 32.2249V41.3849C38.0315 41.9491 38.4205 42.4081 38.8987 42.4081H40.5173C40.9955 42.4081 41.3846 41.9491 41.3846 41.3849V32.2249C41.3846 31.6607 40.9955 31.2017 40.5173 31.2017H38.8987Z" fill="white"/>
<path d="M21.665 13.2992H13.2362C12.6941 13.2992 12.2546 13.828 12.2546 14.4804V18.6238H21.665V13.2992Z" fill="white"/>
<path d="M12.4537 32.7853C11.5483 31.8799 10.0071 33.0634 10.8683 34.1164L15.4838 39.7117C17.0507 41.6112 19.3616 42.7006 21.824 42.7006H27.0443C28.9829 42.7006 30.9221 42.473 32.8079 42.0239L35.9822 41.2648V33.4944L33.8362 32.4043C32.1572 31.5568 30.2133 31.5254 28.5055 32.3195L26.6803 33.168C26.1447 33.417 25.5493 33.5486 24.9586 33.5486H20.2209C19.7795 33.5486 19.4203 33.9078 19.4203 34.3493V35.9016H28.6229C29.1888 35.9016 29.6476 36.3603 29.6476 36.9263C29.6476 37.4922 29.1888 37.951 28.6229 37.951H19.2431C18.0542 37.9653 16.6885 37.4084 15.8369 36.4577L12.4537 32.7853Z" fill="white"/>
</g>
<defs>
<filter id="filter0_d" x="0" y="0" width="56" height="56" filterUnits="userSpaceOnUse" color-interpolation-filters="sRGB">
<feFlood flood-opacity="0" result="BackgroundImageFix"/>
<feColorMatrix in="SourceAlpha" type="matrix" values="0 0 0 0 0 0 0 0 0 0 0 0 0 0 0 0 0 0 127 0"/>
<feOffset dx="2"/>
<feGaussianBlur stdDeviation="2"/>
<feColorMatrix type="matrix" values="0 0 0 0 0 0 0 0 0 0 0 0 0 0 0 0 0 0 0.5 0"/>
<feBlend mode="normal" in2="BackgroundImageFix" result="effect1_dropShadow"/>
<feBlend mode="normal" in="SourceGraphic" in2="effect1_dropShadow" result="shape"/>
</filter>
<linearGradient id="paint0_linear" x1="26" y1="4" x2="26" y2="52" gradientUnits="userSpaceOnUse">
<stop stop-color="#FEA812"/>
<stop offset="0.471875" stop-color="#FEA812"/>
<stop offset="0.508333" stop-color="#EB8316"/>
<stop offset="1" stop-color="#EB8316"/>
</linearGradient>
<clipPath id="clip0">
<rect width="30.7692" height="30.7692" fill="white" transform="translate(10.6154 12.6154)"/>
</clipPath>
</defs>
</svg>
