<svg width="56" height="56" viewBox="0 0 56 56" fill="none" xmlns="http://www.w3.org/2000/svg">
<g filter="url(#filter0_d)">
<rect x="2" y="4" width="48" height="48" rx="2" fill="url(#paint0_linear)"/>
</g>
<g clip-path="url(#clip0)">
<path d="M39.3388 28.3985C39.215 28.1452 39.215 27.8547 39.3388 27.6014L40.4864 25.2538C41.1253 23.9466 40.6191 22.3887 39.3338 21.7068L37.0256 20.482C36.7765 20.3499 36.6058 20.1148 36.5571 19.8372L36.1056 17.2634C35.8542 15.8304 34.5286 14.8674 33.0883 15.0712L30.501 15.4371C30.2218 15.4766 29.9456 15.3868 29.743 15.1908L27.865 13.374C26.8193 12.3623 25.181 12.3623 24.1354 13.374L22.2573 15.191C22.0546 15.387 21.7785 15.4766 21.4993 15.4373L18.912 15.0713C17.4712 14.8674 16.1461 15.8305 15.8947 17.2636L15.4432 19.8373C15.3945 20.1149 15.2238 20.35 14.9748 20.4821L12.6665 21.7069C11.3813 22.3887 10.8751 23.9468 11.514 25.254L12.6615 27.6016C12.7853 27.8549 12.7853 28.1454 12.6615 28.3986L11.5139 30.7462C10.875 32.0533 11.3812 33.6113 12.6665 34.2932L14.9747 35.518C15.2238 35.6501 15.3945 35.8852 15.4432 36.1627L15.8947 38.7366C16.1235 40.0411 17.2421 40.956 18.5278 40.9559C18.6544 40.9559 18.7829 40.947 18.912 40.9288L21.4993 40.5628C21.7784 40.5232 22.0547 40.6131 22.2573 40.8091L24.1354 42.6259C24.6583 43.1318 25.3291 43.3847 26.0002 43.3846C26.671 43.3846 27.3422 43.1317 27.8649 42.6259L29.743 40.8091C29.9457 40.6131 30.2219 40.5236 30.501 40.5628L33.0883 40.9288C34.5293 41.1326 35.8542 40.1696 36.1056 38.7365L36.5571 36.1628C36.6059 35.8852 36.7766 35.6501 37.0256 35.518L39.3338 34.2932C40.6191 33.6114 41.1253 32.0533 40.4864 30.7461L39.3388 28.3985ZM22.4508 20.0141C24.2448 20.0141 25.7044 21.4736 25.7044 23.2676C25.7044 25.0616 24.2448 26.5212 22.4508 26.5212C20.6569 26.5212 19.1973 25.0616 19.1973 23.2676C19.1973 21.4736 20.6569 20.0141 22.4508 20.0141ZM20.7715 34.4834C20.5983 34.6566 20.3712 34.7433 20.1441 34.7433C19.9171 34.7433 19.6899 34.6567 19.5167 34.4834C19.1702 34.1369 19.1702 33.575 19.5167 33.2285L31.2287 21.5165C31.5752 21.17 32.1371 21.17 32.4836 21.5165C32.8301 21.863 32.8301 22.4248 32.4836 22.7714L20.7715 34.4834ZM29.5493 35.9859C27.7554 35.9859 26.2958 34.5263 26.2958 32.7324C26.2958 30.9384 27.7554 29.4788 29.5493 29.4788C31.3433 29.4788 32.8029 30.9384 32.8029 32.7324C32.8029 34.5263 31.3433 35.9859 29.5493 35.9859Z" fill="white"/>
<path d="M29.5492 31.2535C28.7338 31.2535 28.0703 31.9169 28.0703 32.7324C28.0703 33.5478 28.7337 34.2112 29.5492 34.2112C30.3647 34.2112 31.028 33.5478 31.028 32.7324C31.028 31.9169 30.3647 31.2535 29.5492 31.2535Z" fill="white"/>
<path d="M22.4508 21.7888C21.6353 21.7888 20.9719 22.4522 20.9719 23.2676C20.9719 24.083 21.6353 24.7465 22.4508 24.7465C23.2662 24.7465 23.9297 24.0831 23.9297 23.2676C23.9296 22.4522 23.2662 21.7888 22.4508 21.7888Z" fill="white"/>
</g>
<defs>
<filter id="filter0_d" x="0" y="0" width="56" height="56" filterUnits="userSpaceOnUse" color-interpolation-filters="sRGB">
<feFlood flood-opacity="0" result="BackgroundImageFix"/>
<feColorMatrix in="SourceAlpha" type="matrix" values="0 0 0 0 0 0 0 0 0 0 0 0 0 0 0 0 0 0 127 0"/>
<feOffset dx="2"/>
<feGaussianBlur stdDeviation="2"/>
<feColorMatrix type="matrix" values="0 0 0 0 0 0 0 0 0 0 0 0 0 0 0 0 0 0 0.5 0"/>
<feBlend mode="normal" in2="BackgroundImageFix" result="effect1_dropShadow"/>
<feBlend mode="normal" in="SourceGraphic" in2="effect1_dropShadow" result="shape"/>
</filter>
<linearGradient id="paint0_linear" x1="26" y1="4" x2="26" y2="52" gradientUnits="userSpaceOnUse">
<stop stop-color="#FEA812"/>
<stop offset="0.471875" stop-color="#FEA812"/>
<stop offset="0.508333" stop-color="#EB8316"/>
<stop offset="1" stop-color="#EB8316"/>
</linearGradient>
<clipPath id="clip0">
<rect width="30.7692" height="30.7692" fill="white" transform="translate(10.6155 12.6154)"/>
</clipPath>
</defs>
</svg>
