<svg width="56" height="56" viewBox="0 0 56 56" fill="none" xmlns="http://www.w3.org/2000/svg">
<g filter="url(#filter0_d)">
<rect x="2" y="4" width="48" height="48" rx="2" fill="url(#paint0_linear)"/>
</g>
<g clip-path="url(#clip0)">
<path d="M30.2853 40.0085H13.9916C12.2055 40.0085 10.7525 38.5554 10.7525 36.7693C10.7525 34.9832 12.2055 33.5301 13.9916 33.5301H20.3378C23.2174 33.5301 25.5602 31.1874 25.5602 28.3077C25.5602 25.4281 23.2174 23.0854 20.3378 23.0854H16.8687C16.9324 23.4063 16.9664 23.7377 16.9664 24.077C16.9664 24.4163 16.9324 24.7477 16.8687 25.0686H20.3378C22.1239 25.0686 23.577 26.5216 23.577 28.3077C23.577 30.0939 22.1239 31.5469 20.3378 31.5469H13.9916C11.112 31.5469 8.76929 33.8896 8.76929 36.7693C8.76929 39.6489 11.112 41.9916 13.9916 41.9916H30.2853C30.2216 41.6708 30.1876 41.3394 30.1876 41.0001C30.1876 40.6607 30.2216 40.3293 30.2853 40.0085Z" fill="white"/>
<path d="M35.2776 37.8931C33.5644 37.8931 32.1707 39.2868 32.1707 41C32.1707 42.7132 33.5644 44.107 35.2776 44.107C36.9908 44.107 38.3846 42.7132 38.3846 41C38.3846 39.2868 36.9908 37.8931 35.2776 37.8931Z" fill="white"/>
<path d="M18.2224 12.5084H11.8763C11.3286 12.5084 10.8847 12.9524 10.8847 13.5C10.8847 14.319 10.8847 20.3049 10.8847 21.1332C9.65643 21.5481 8.76929 22.7105 8.76929 24.0769C8.76929 25.7901 10.1631 27.1839 11.8763 27.1839C13.5895 27.1839 14.9832 25.7901 14.9832 24.0769C14.9832 22.7105 14.0961 21.5481 12.8678 21.1332V18.7224H18.2224C18.77 18.7224 19.214 18.2784 19.214 17.7308V13.5C19.214 12.9524 18.77 12.5084 18.2224 12.5084Z" fill="white"/>
<path d="M35.2777 14.6238C31.2316 14.6238 27.9399 17.9155 27.9399 21.9616C27.9399 24.1464 28.8918 26.182 30.5594 27.5816L34.3942 35.1042C34.7615 35.8247 35.7939 35.8246 36.1611 35.1042L39.9959 27.5816C41.6636 26.182 42.6154 24.1464 42.6154 21.9616C42.6154 17.9155 39.3238 14.6238 35.2777 14.6238ZM35.2777 25.0686C33.5645 25.0686 32.1707 23.6748 32.1707 21.9616C32.1707 20.2484 33.5645 18.8546 35.2777 18.8546C36.9909 18.8546 38.3847 20.2484 38.3847 21.9616C38.3847 23.6748 36.9909 25.0686 35.2777 25.0686Z" fill="white"/>
</g>
<defs>
<filter id="filter0_d" x="0" y="0" width="56" height="56" filterUnits="userSpaceOnUse" color-interpolation-filters="sRGB">
<feFlood flood-opacity="0" result="BackgroundImageFix"/>
<feColorMatrix in="SourceAlpha" type="matrix" values="0 0 0 0 0 0 0 0 0 0 0 0 0 0 0 0 0 0 127 0"/>
<feOffset dx="2"/>
<feGaussianBlur stdDeviation="2"/>
<feColorMatrix type="matrix" values="0 0 0 0 0 0 0 0 0 0 0 0 0 0 0 0 0 0 0.5 0"/>
<feBlend mode="normal" in2="BackgroundImageFix" result="effect1_dropShadow"/>
<feBlend mode="normal" in="SourceGraphic" in2="effect1_dropShadow" result="shape"/>
</filter>
<linearGradient id="paint0_linear" x1="26" y1="4" x2="26" y2="52" gradientUnits="userSpaceOnUse">
<stop stop-color="#FEA812"/>
<stop offset="0.471875" stop-color="#FEA812"/>
<stop offset="0.508333" stop-color="#EB8316"/>
<stop offset="1" stop-color="#EB8316"/>
</linearGradient>
<clipPath id="clip0">
<rect width="33.8462" height="33.8462" fill="white" transform="translate(8.76929 11.3846)"/>
</clipPath>
</defs>
</svg>
