<svg width="56" height="56" viewBox="0 0 56 56" fill="none" xmlns="http://www.w3.org/2000/svg">
<g filter="url(#filter0_d)">
<rect x="2" y="4" width="48" height="48" rx="2" fill="url(#paint0_linear)"/>
</g>
<g clip-path="url(#clip0)">
<path d="M25.9997 22.138C22.767 22.138 20.1371 24.7679 20.1371 28.0004C20.1371 31.2332 22.767 33.8631 25.9997 33.8631C29.2323 33.8631 31.8622 31.2332 31.8622 28.0004C31.8622 24.7679 29.2323 22.138 25.9997 22.138ZM29.4804 26.8964L25.2805 31.0963C25.1042 31.2726 24.8729 31.3609 24.6419 31.3609C24.411 31.3609 24.18 31.2729 24.0037 31.0963L22.3987 29.4913C22.0461 29.139 22.0461 28.5674 22.3987 28.2148C22.751 27.8622 23.3227 27.8622 23.6752 28.2148L24.6419 29.1815L28.2038 25.6198C28.5562 25.2672 29.1278 25.2672 29.4804 25.6198C29.833 25.9722 29.833 26.5438 29.4804 26.8964Z" fill="white"/>
<path d="M39.0701 20.9638L39.0692 20.9398C39.0558 20.6443 39.0469 20.3316 39.0415 19.9837C39.0164 18.2871 37.6677 16.8838 35.971 16.789C32.4333 16.5915 29.6966 15.438 27.3582 13.1588L27.3383 13.1398C26.5756 12.4405 25.4251 12.4405 24.6621 13.1398L24.6422 13.1588C22.3038 15.438 19.5671 16.5915 16.0294 16.7892C14.3329 16.8838 12.984 18.2871 12.9589 19.9839C12.9537 20.3295 12.9446 20.6422 12.9312 20.9398L12.9298 20.9955C12.861 24.6029 12.7756 29.0925 14.2775 33.1675C15.1033 35.4084 16.3541 37.3564 17.9948 38.9576C19.8634 40.7811 22.3109 42.2288 25.2692 43.2603C25.3654 43.2939 25.4654 43.3211 25.5673 43.3415C25.711 43.3702 25.8556 43.3845 26.0002 43.3845C26.1448 43.3845 26.2896 43.3702 26.4331 43.3415C26.535 43.3211 26.6357 43.2936 26.7324 43.2598C29.6872 42.2265 32.1321 40.7781 33.9991 38.9548C35.639 37.3531 36.8898 35.4046 37.7163 33.1632C39.2239 29.076 39.1387 24.578 39.0701 20.9638ZM25.9997 35.6685C21.7714 35.6685 18.3316 32.2287 18.3316 28.0004C18.3316 23.7721 21.7714 20.3323 25.9997 20.3323C30.2278 20.3323 33.6678 23.7721 33.6678 28.0004C33.6678 32.2287 30.2278 35.6685 25.9997 35.6685Z" fill="white"/>
</g>
<defs>
<filter id="filter0_d" x="0" y="0" width="56" height="56" filterUnits="userSpaceOnUse" color-interpolation-filters="sRGB">
<feFlood flood-opacity="0" result="BackgroundImageFix"/>
<feColorMatrix in="SourceAlpha" type="matrix" values="0 0 0 0 0 0 0 0 0 0 0 0 0 0 0 0 0 0 127 0"/>
<feOffset dx="2"/>
<feGaussianBlur stdDeviation="2"/>
<feColorMatrix type="matrix" values="0 0 0 0 0 0 0 0 0 0 0 0 0 0 0 0 0 0 0.5 0"/>
<feBlend mode="normal" in2="BackgroundImageFix" result="effect1_dropShadow"/>
<feBlend mode="normal" in="SourceGraphic" in2="effect1_dropShadow" result="shape"/>
</filter>
<linearGradient id="paint0_linear" x1="26" y1="4" x2="26" y2="52" gradientUnits="userSpaceOnUse">
<stop stop-color="#FEA812"/>
<stop offset="0.471875" stop-color="#FEA812"/>
<stop offset="0.508333" stop-color="#EB8316"/>
<stop offset="1" stop-color="#EB8316"/>
</linearGradient>
<clipPath id="clip0">
<rect width="30.7692" height="30.7692" fill="white" transform="translate(10.6154 12.6154)"/>
</clipPath>
</defs>
</svg>
