<svg width="56" height="56" viewBox="0 0 56 56" fill="none" xmlns="http://www.w3.org/2000/svg">
<g filter="url(#filter0_d)">
<rect x="2" y="4" width="48" height="48" rx="2" fill="url(#paint0_linear)"/>
</g>
<g clip-path="url(#clip0)">
<path d="M28.9585 28.1306C33.5754 28.1306 37.3308 24.3744 37.3308 19.7576C37.3308 15.1408 33.5754 11.3846 28.9585 11.3846C24.3417 11.3846 20.5856 15.1408 20.5856 19.7576C20.5856 24.3744 24.3417 28.1306 28.9585 28.1306ZM27.9669 14.836V14.6086C27.9669 14.0606 28.4105 13.617 28.9585 13.617C29.5059 13.617 29.9501 14.0606 29.9501 14.6086V14.8373C31.1301 15.0905 32.0179 16.1416 32.0179 17.3963C32.0179 17.9437 31.5737 18.3879 31.0263 18.3879C30.4783 18.3879 30.0347 17.9437 30.0347 17.3963C30.0347 17.0466 29.7498 16.7617 29.4001 16.7617H28.511C28.1613 16.7617 27.8764 17.0466 27.8764 17.3963C27.8764 17.5966 27.9722 17.787 28.1335 17.906L28.9585 18.5168L30.9629 20.0002C31.6213 20.4874 32.0179 21.2668 32.0232 22.0865V22.0958C32.0278 22.7952 31.7601 23.4549 31.2683 23.9527C30.9034 24.3222 30.4472 24.5701 29.9501 24.6745V24.9066C29.9501 25.4546 29.5059 25.8982 28.9585 25.8982C28.4105 25.8982 27.9669 25.4546 27.9669 24.9066V24.6779C27.483 24.5747 27.0382 24.3367 26.6785 23.9811C26.1808 23.4899 25.9044 22.8342 25.9005 22.1348C25.8972 21.5874 26.3381 21.1405 26.8855 21.1372H26.8921C27.4368 21.1372 27.8803 21.5775 27.8836 22.1229C27.885 22.4651 28.1603 22.7535 28.5216 22.7535C29.0695 22.7502 28.8654 22.7514 29.4094 22.7482C29.7613 22.7454 30.0427 22.4598 30.04 22.109V22.0997C30.0387 21.9014 29.9428 21.7123 29.7829 21.594L28.9585 20.9839L26.9535 19.5004C26.2898 19.0086 25.8932 18.222 25.8932 17.3963C25.8932 16.139 26.7836 15.0872 27.9669 14.836Z" fill="white"/>
<path d="M15.3922 32.8949C15.1381 32.4543 14.5734 32.301 14.1301 32.5567L9.46579 35.2492C9.02413 35.5049 8.87262 36.0697 9.12759 36.512L13.8947 44.7687C14.1499 45.2102 14.7145 45.3619 15.1569 45.1069L19.8212 42.4138C20.2635 42.1587 20.4144 41.5939 20.1594 41.1516L15.3922 32.8949Z" fill="white"/>
<path d="M42.1181 31.2468C41.6693 30.6234 40.8007 30.4826 40.1779 30.9315C38.2886 32.2926 34.6608 34.9064 34.3725 35.1146C34.2397 35.2277 34.1002 35.3302 33.9547 35.4207C33.3843 35.7797 32.7225 35.9714 32.0317 35.9714H27.282C26.7347 35.9714 26.2904 35.5278 26.2904 34.9798C26.2904 34.4311 26.7353 33.9882 27.282 33.9882H32.3616C33.1079 33.9882 33.7055 33.3668 33.6745 32.6192C33.6454 31.9098 33.0398 31.3598 32.3299 31.3598H28.4633C28.2016 31.0829 27.9147 30.829 27.6073 30.6023C26.5502 29.8229 25.244 29.3621 23.83 29.3621C21.316 29.3621 18.8145 30.946 17.7773 33.0601L21.8336 40.0851H29.4424C30.9364 40.0851 32.4079 39.703 33.7029 38.958C34.1517 38.7002 34.6323 38.3902 35.1532 38.016C37.3361 36.448 41.7989 33.1903 41.8022 33.1883C42.4262 32.7401 42.5677 31.8702 42.1181 31.2468Z" fill="white"/>
</g>
<defs>
<filter id="filter0_d" x="0" y="0" width="56" height="56" filterUnits="userSpaceOnUse" color-interpolation-filters="sRGB">
<feFlood flood-opacity="0" result="BackgroundImageFix"/>
<feColorMatrix in="SourceAlpha" type="matrix" values="0 0 0 0 0 0 0 0 0 0 0 0 0 0 0 0 0 0 127 0"/>
<feOffset dx="2"/>
<feGaussianBlur stdDeviation="2"/>
<feColorMatrix type="matrix" values="0 0 0 0 0 0 0 0 0 0 0 0 0 0 0 0 0 0 0.5 0"/>
<feBlend mode="normal" in2="BackgroundImageFix" result="effect1_dropShadow"/>
<feBlend mode="normal" in="SourceGraphic" in2="effect1_dropShadow" result="shape"/>
</filter>
<linearGradient id="paint0_linear" x1="26" y1="4" x2="26" y2="52" gradientUnits="userSpaceOnUse">
<stop stop-color="#FEA812"/>
<stop offset="0.471875" stop-color="#FEA812"/>
<stop offset="0.508333" stop-color="#EB8316"/>
<stop offset="1" stop-color="#EB8316"/>
</linearGradient>
<clipPath id="clip0">
<rect width="33.8462" height="33.8462" fill="white" transform="translate(8.76917 11.3846)"/>
</clipPath>
</defs>
</svg>
