<svg width="56" height="56" viewBox="0 0 56 56" fill="none" xmlns="http://www.w3.org/2000/svg">
<g filter="url(#filter0_d)">
<rect x="2" y="4" width="48" height="48" rx="2" fill="url(#paint0_linear)"/>
</g>
<g clip-path="url(#clip0)">
<path d="M13.6882 39.1442V45.2308H18.615C16.4026 43.7702 14.665 41.6462 13.6882 39.1442Z" fill="white"/>
<path d="M38.5725 27.9953V35.361C38.5725 36.2216 39.2727 36.9217 40.1333 36.9217C40.9939 36.9217 41.694 36.2216 41.694 35.361V27.9953C41.694 27.1347 40.9939 26.4346 40.1333 26.4346C39.2727 26.4346 38.5725 27.1347 38.5725 27.9953Z" fill="white"/>
<path d="M25.6923 17.3084C20.6528 17.3084 16.4125 20.7922 15.2512 25.4777H27.3951L29.3754 22.5634C29.5731 22.2724 29.9021 22.0982 30.2538 22.0982H30.2574C30.6104 22.0994 30.9398 22.2759 31.1362 22.5693L33.0836 25.4777H36.1334C34.9721 20.7922 30.7317 17.3084 25.6923 17.3084Z" fill="white"/>
<path d="M25.6923 45.2305C31.6234 45.2305 36.4486 40.4053 36.4486 34.4742V28.0648C36.4486 27.9096 36.4446 27.7554 36.438 27.6017H32.5166C32.1623 27.6017 31.8313 27.425 31.6342 27.1306L30.2474 25.0593L28.836 27.1365C28.6382 27.4275 28.3093 27.6017 27.9575 27.6017H14.9466C14.9401 27.7553 14.936 27.9095 14.936 28.0647V34.4741C14.936 35.4997 15.0805 36.4921 15.3498 37.4324H20.3866V37.0481C20.3866 35.994 21.2441 35.1365 22.2982 35.1365H29.0865C30.1405 35.1365 30.9981 35.994 30.9981 37.0481V39.9407C30.9981 40.9947 30.1405 41.8522 29.0865 41.8522H22.2982C21.2441 41.8522 20.3866 40.9947 20.3866 39.9407V39.5563H16.2146C18.0315 42.9311 21.5983 45.2304 25.6922 45.2304H25.6923V45.2305Z" fill="white"/>
<path d="M22.5105 37.2605H28.874V39.7283H22.5105V37.2605Z" fill="white"/>
<path d="M11.2511 24.3106C11.6282 24.3106 11.9919 24.3682 12.3346 24.4741C12.5145 21.5454 13.862 18.8622 16.1758 16.8594C18.6723 14.6986 22.052 13.5086 25.6922 13.5086C29.3324 13.5086 32.7121 14.6986 35.2086 16.8594C37.5225 18.8622 38.8699 21.5455 39.0499 24.4741C39.6624 24.2855 40.4433 24.2427 41.1772 24.4621C40.9929 20.9127 39.3838 17.6641 36.5986 15.2535C33.7161 12.7586 29.8428 11.3846 25.6922 11.3846C21.5416 11.3846 17.6683 12.7586 14.7858 15.2535C12.0006 17.6641 10.3915 20.9127 10.2073 24.4621C10.5385 24.3641 10.8886 24.3106 11.2511 24.3106Z" fill="white"/>
<path d="M37.7288 45.2308V39.0584C36.7584 41.5978 35.0067 43.7536 32.7688 45.2308H37.7288Z" fill="white"/>
<path d="M9.69043 27.9953V35.361C9.69043 36.2216 10.3906 36.9217 11.2512 36.9217C12.1118 36.9217 12.812 36.2216 12.812 35.361V27.9953C12.812 27.1347 12.1118 26.4346 11.2512 26.4346C10.3906 26.4346 9.69043 27.1347 9.69043 27.9953Z" fill="white"/>
</g>
<defs>
<filter id="filter0_d" x="0" y="0" width="56" height="56" filterUnits="userSpaceOnUse" color-interpolation-filters="sRGB">
<feFlood flood-opacity="0" result="BackgroundImageFix"/>
<feColorMatrix in="SourceAlpha" type="matrix" values="0 0 0 0 0 0 0 0 0 0 0 0 0 0 0 0 0 0 127 0"/>
<feOffset dx="2"/>
<feGaussianBlur stdDeviation="2"/>
<feColorMatrix type="matrix" values="0 0 0 0 0 0 0 0 0 0 0 0 0 0 0 0 0 0 0.5 0"/>
<feBlend mode="normal" in2="BackgroundImageFix" result="effect1_dropShadow"/>
<feBlend mode="normal" in="SourceGraphic" in2="effect1_dropShadow" result="shape"/>
</filter>
<linearGradient id="paint0_linear" x1="26" y1="4" x2="26" y2="52" gradientUnits="userSpaceOnUse">
<stop stop-color="#FEA812"/>
<stop offset="0.471875" stop-color="#FEA812"/>
<stop offset="0.508333" stop-color="#EB8316"/>
<stop offset="1" stop-color="#EB8316"/>
</linearGradient>
<clipPath id="clip0">
<rect width="33.8462" height="33.8462" fill="white" transform="translate(8.76929 11.3846)"/>
</clipPath>
</defs>
</svg>
