<svg width="56" height="56" viewBox="0 0 56 56" fill="none" xmlns="http://www.w3.org/2000/svg">
<g filter="url(#filter0_d)">
<rect x="2" y="4" width="48" height="48" rx="2" fill="url(#paint0_linear)"/>
</g>
<g clip-path="url(#clip0)">
<path d="M26.0013 28.1229C24.444 28.1229 23.177 29.3899 23.177 30.9472C23.177 32.5045 24.444 33.7715 26.0013 33.7715C27.5587 33.7715 28.8257 32.5045 28.8257 30.9472C28.8257 29.3899 27.5587 28.1229 26.0013 28.1229Z" fill="white"/>
<path d="M40.3686 22.7298C40.235 22.6269 39.0742 21.7335 37.4789 20.5142V15.5635C37.4789 15.0656 37.0753 14.6621 36.5775 14.6621H32.7316C32.2338 14.6621 31.8302 15.0657 31.8302 15.5635V16.2294C30.1325 14.9547 28.5777 13.8045 27.613 13.1293C26.6339 12.4439 25.3685 12.4439 24.3894 13.1293C21.3642 15.2469 11.6476 22.7054 11.5463 22.8067C10.4451 23.908 10.4452 25.6998 11.5463 26.801C12.3378 27.5923 13.5024 27.8277 14.5235 27.4516V42.4831C14.5235 42.981 14.9271 43.3845 15.4249 43.3845H26.0012H36.5774C37.0752 43.3845 37.4788 42.9809 37.4788 42.4831V27.4518C38.4812 27.821 39.6524 27.6045 40.456 26.801C41.735 25.5221 41.3816 23.5093 40.3686 22.7298ZM30.2902 36.056L26.8042 42.8926C26.6503 43.1945 26.3401 43.3845 26.0012 43.3845C25.6622 43.3845 25.352 43.1944 25.1981 42.8925L21.7121 36.056C20.1962 34.7837 19.3309 32.9333 19.3309 30.9472C19.3309 27.2692 22.3231 24.2769 26.0012 24.2769C29.6792 24.2769 32.6714 27.2692 32.6714 30.9472C32.6715 32.9334 31.8062 34.7838 30.2902 36.056ZM39.1814 25.5261C38.783 25.9244 38.1349 25.9244 37.7365 25.5261C37.7082 25.4979 26.5483 16.9691 26.5483 16.9691C26.2252 16.7223 25.777 16.7223 25.4539 16.9691C13.7096 25.9411 14.3301 25.462 14.2659 25.5261C13.8676 25.9244 13.2194 25.9244 12.821 25.5262C12.4344 25.1396 12.4231 24.5176 12.787 24.1171C13.5629 23.5202 22.465 16.6768 25.4231 14.6062C25.7743 14.3604 26.2281 14.3604 26.5792 14.6062C29.5373 16.6767 38.4396 23.5202 39.2155 24.1171C39.5793 24.5176 39.568 25.1396 39.1814 25.5261Z" fill="white"/>
</g>
<defs>
<filter id="filter0_d" x="0" y="0" width="56" height="56" filterUnits="userSpaceOnUse" color-interpolation-filters="sRGB">
<feFlood flood-opacity="0" result="BackgroundImageFix"/>
<feColorMatrix in="SourceAlpha" type="matrix" values="0 0 0 0 0 0 0 0 0 0 0 0 0 0 0 0 0 0 127 0"/>
<feOffset dx="2"/>
<feGaussianBlur stdDeviation="2"/>
<feColorMatrix type="matrix" values="0 0 0 0 0 0 0 0 0 0 0 0 0 0 0 0 0 0 0.5 0"/>
<feBlend mode="normal" in2="BackgroundImageFix" result="effect1_dropShadow"/>
<feBlend mode="normal" in="SourceGraphic" in2="effect1_dropShadow" result="shape"/>
</filter>
<linearGradient id="paint0_linear" x1="26" y1="4" x2="26" y2="52" gradientUnits="userSpaceOnUse">
<stop stop-color="#FEA812"/>
<stop offset="0.471875" stop-color="#FEA812"/>
<stop offset="0.508333" stop-color="#EB8316"/>
<stop offset="1" stop-color="#EB8316"/>
</linearGradient>
<clipPath id="clip0">
<rect width="30.7692" height="30.7692" fill="white" transform="translate(10.6155 12.6154)"/>
</clipPath>
</defs>
</svg>
